<svg xmlns="http://www.w3.org/2000/svg" viewBox="0 0 512 512" width="512" height="512">
  <defs>
    <linearGradient id="bgGrad" x1="0%" y1="0%" x2="100%" y2="100%">
      <stop offset="0%" stop-color="#7eb8f7" />
      <stop offset="100%" stop-color="#3d3fa5" />
    </linearGradient>
    <filter id="shadow" x="-10%" y="-10%" width="120%" height="130%">
      <feDropShadow dx="0" dy="8" stdDeviation="12" flood-color="#000000" flood-opacity="0.28" />
    </filter>
  </defs>

  <rect width="512" height="512" rx="108" ry="108" fill="url(#bgGrad)" />
  <ellipse cx="156" cy="132" rx="184" ry="152" fill="#ffffff" fill-opacity="0.12" />

  <g filter="url(#shadow)" fill="#ffffff">
    <rect x="104" y="114" width="304" height="84" rx="26" fill-opacity="0.95" />
    <rect x="104" y="214" width="304" height="84" rx="26" fill-opacity="0.9" />
    <rect x="104" y="314" width="304" height="84" rx="26" fill-opacity="0.86" />

    <circle cx="144" cy="156" r="16" fill="#dfe9ff" />
    <circle cx="144" cy="256" r="16" fill="#dfe9ff" />
    <circle cx="144" cy="356" r="16" fill="#dfe9ff" />

    <rect x="176" y="141" width="178" height="14" rx="7" fill="#dfe9ff" />
    <rect x="176" y="165" width="122" height="12" rx="6" fill="#dfe9ff" />

    <rect x="176" y="241" width="168" height="14" rx="7" fill="#dfe9ff" />
    <rect x="176" y="265" width="144" height="12" rx="6" fill="#dfe9ff" />

    <rect x="176" y="341" width="186" height="14" rx="7" fill="#dfe9ff" />
    <rect x="176" y="365" width="136" height="12" rx="6" fill="#dfe9ff" />

    <path
      d="M371 147c16 4 29 16 34 33M372 247c16 4 29 16 34 33M372 347c16 4 29 16 34 33"
      fill="none"
      stroke="#ffffff"
      stroke-linecap="round"
      stroke-width="12"
    />
  </g>
</svg>
